PathFileType	4	(X/Y/Z)	C:\Users\WrightLab\Desktop\Jo\P2_Trial38.trc
DataRate	CameraRate	NumFrames	NumMarkers	Units	OrigDataRate	OrigDataStartFrame	OrigNumFrames
100.00	100.00	      8	19	mm	100.00	825	      1099
Frame#	Time	Headset_Front			Headset_Back			Headset_Left			Headset_Right			Left_Shoulder			Right_Shoulder			Sternum			C7			Left Elbow			Right Elbow			Left Wrist			Right Wrist			Left ASIS			Right ASIS			S2			Left Knee			Right Knee			Left Ankle			Right Ankle			
		X1	Y1	Z1	X2	Y2	Z2	X3	Y3	Z3	X4	Y4	Z4	X5	Y5	Z5	X6	Y6	Z6	X7	Y7	Z7	X8	Y8	Z8	X9	Y9	Z9	X10	Y10	Z10	X11	Y11	Z11	X12	Y12	Z12	X13	Y13	Z13	X14	Y14	Z14	X15	Y15	Z15	X16	Y16	Z16	X17	Y17	Z17	X18	Y18	Z18	X19	Y19	Z19	

825	8.240	-402.77225	1228.56909	135.51071	-392.04178	1536.79736	151.10185	-425.79022	1401.89355	255.02684	-360.58490	1338.62402	41.70455	-292.94229	1414.28198	346.58594	-161.23735	1340.13220	64.41686	-239.59525	1242.96240	232.15215	-123.34932	1430.13928	223.01341	-229.37883	1126.03931	547.21106	-12.43568	1040.75366	80.35114	-177.34950	906.23035	616.25653	-17.37421	789.50330	131.52100	-196.93855	1021.07031	370.56671	-137.42947	985.38214	259.02237	64.24918	1003.81952	446.38013	-175.31589	492.54840	543.77173	54.20266	541.73596	257.95752	-207.16118	141.96965	518.20129	46.54126	105.23502	291.53537	
826	8.250	-404.08212	1228.65698	134.06712	-393.13202	1536.52466	149.54694	-427.29443	1402.32178	254.08696	-361.63712	1338.45483	41.50488	-294.47977	1414.52710	345.56580	-162.16301	1339.35168	63.39291	-240.74167	1242.86145	231.13039	-124.16601	1429.95422	221.97195	-230.17693	1126.35669	546.49561	-14.55261	1040.58691	79.01329	-177.94341	906.60254	615.83557	-18.44610	789.16077	130.36400	-198.09610	1021.31830	369.87134	-138.76814	985.13879	258.39944	62.73227	1003.77716	445.11423	-175.84370	492.74124	543.28705	53.70013	541.38434	257.60452	-207.18521	141.98262	518.14722	46.84258	104.95419	291.95593	
827	8.260	-405.28748	1228.61340	133.11581	-394.15979	1536.58289	148.40207	-427.80914	1402.06543	252.70773	-363.34943	1339.83130	38.33675	-295.66647	1414.67761	344.00052	-163.13524	1339.31006	62.37089	-241.98427	1242.83960	229.97569	-125.15612	1429.57324	220.60606	-231.50865	1126.74451	545.59003	-15.48554	1040.35156	77.92412	-178.42949	906.65442	615.28552	-19.35137	788.90894	128.99275	-199.20879	1021.12225	368.79279	-140.12408	984.93140	257.57285	61.71135	1003.63647	444.18097	-176.37529	492.97427	542.89435	53.02705	541.58307	257.07648	-207.20010	141.99579	518.12164	46.84618	104.84969	292.00714	
828	8.270	-406.49667	1228.83643	131.96680	-395.10016	1536.73718	146.92603	-428.59271	1401.88538	250.95026	-364.01398	1340.31201	36.95211	-296.78714	1414.82129	342.68881	-164.59624	1339.06812	60.79346	-243.26730	1242.89514	228.96837	-126.32304	1429.72595	219.26350	-232.61668	1127.40161	544.58942	-16.85061	1039.97705	76.18958	-178.61423	906.99829	614.95270	-20.39998	788.48267	127.62729	-200.99580	1021.53284	368.11008	-141.56638	984.90112	256.64999	60.85568	1003.92175	443.84076	-177.23831	493.37302	542.51550	52.33060	541.71411	256.51617	-207.21945	141.99982	518.08533	46.86634	104.87371	291.92786	
829	8.280	-408.10703	1228.84485	130.72090	-395.85968	1536.85840	145.73187	-430.23495	1402.38916	249.80917	-365.12601	1340.30005	35.60308	-297.94620	1415.19971	341.56647	-165.07344	1338.68872	60.07923	-244.55466	1242.94067	227.81264	-127.33503	1429.98938	218.19003	-233.20084	1127.68188	543.88660	-17.96168	1039.78064	75.40853	-178.87630	907.74274	614.42816	-21.71546	788.46088	126.38746	-202.58153	1021.53333	367.27307	-142.67880	984.75397	255.54112	59.16148	1004.16962	442.11853	-177.94861	493.52475	542.09955	51.47388	541.20422	256.23697	-207.23010	141.99504	518.07257	46.83619	104.74772	291.97314	
830	8.290	-409.21954	1228.85339	129.93074	-397.05359	1537.37463	144.67033	-431.57718	1402.57068	248.82709	-366.20999	1340.59741	34.39824	-298.50742	1415.01648	340.11124	-166.97424	1339.16968	58.29041	-245.92120	1243.18896	226.75331	-128.54243	1430.09961	216.92142	-234.23164	1128.19983	543.09863	-19.90765	1040.21289	73.67709	-179.65744	908.64948	614.44122	-22.96290	787.83276	126.04238	-203.94565	1021.46954	366.10846	-144.45522	984.24255	254.27010	57.74751	1004.00208	441.24625	-178.84256	493.92575	541.31384	50.52407	540.85791	255.87231	-207.39903	142.02487	518.09552	46.90308	104.75182	291.68707	
831	8.300	-410.67590	1229.40747	128.84038	-398.14307	1537.73071	143.50851	-432.42426	1403.43115	247.67776	-366.72855	1340.81506	33.33533	-299.67731	1415.47705	339.09937	-167.84583	1339.04358	57.71104	-247.33289	1243.41675	225.63570	-129.40489	1429.97083	216.02817	-235.29515	1128.84583	542.49255	-21.02245	1040.03845	72.87637	-179.40002	908.91437	614.11523	-25.10701	788.29633	124.43501	-205.62335	1021.90887	365.11685	-145.99626	984.48431	253.27669	56.20806	1004.16486	439.64398	-179.25970	493.54770	540.48950	49.76689	540.11096	255.27013	-208.77144	143.13625	518.82635	46.56057	104.64536	291.63016	
832	8.310	-412.10577	1230.24158	126.61064	-399.10007	1538.36755	142.23932	-433.93344	1403.76672	246.22000	-367.87631	1341.33777	32.37409	-301.74619	1416.05981	338.23248	-169.26883	1339.46631	56.47625	-248.70131	1243.80408	224.55078	-130.53748	1430.35132	215.28497	-236.36897	1129.08105	542.01501	-22.94173	1040.27917	71.44095	-178.88358	909.52454	614.05200	-25.72867	787.81354	123.24896	-207.75806	1022.09711	364.14737	-147.77744	984.45667	252.06227	54.87375	1004.00079	438.98987	-180.11259	493.76208	539.87427	49.11082	539.75940	254.99141	-209.33447	143.14304	519.51477	46.56069	104.39421	291.09012	
